:SAMPLES-PER-SECOND 30
:FULLY-SPECIFIED
:DEGREES
325
root  59.5077 39.6362 -16.6493 2.64687 -37.5094 3.53056
RightUpLeg  -22.3521 -39.1098 2.64021
RightLeg  21.3682 -9.91404 -4.48528
RightFoot  -7.03416 0.0824889 -3.46104
RightToes  0.00048216 0.542163 -0.142577
Spine  21.277 3.30625 5.13528
Spine1  2.70095 5.80022 -6.62824
HEad  -11.0672 -28.7276 12.0017
LeftShoulder1  9.31633 -15.8538 -41.7601
LeftArm  -18.5915 16.0134 -14.0877
LeftForeArm  -7.62092 -55.5881 -17.2432
LeftHand  -0.25398 0.0180481 5.50724
RightShoulder  5.4366 12.6454 27.6327
RightArm  42.8147 32.9175 71.2061
RightForeArm  -44.4855 30.2943 8.49998
RightHand  -0.0728243 -5.00465 -14.7862
LeftUpLeg  -0.958617 15.0921 14.0025
LeftLeg  4.5461 56.0516 -4.54845
LeftFoot  5.95125 0.832697 -5.69576
LeftToes  1.06248e-005 4.65856e-005 -8.18499e-006
326
root  58.3698 39.5277 -16.6045 1.02536 -39.3152 3.98465
RightUpLeg  -19.9013 -35.8007 1.63187
RightLeg  23.2674 -11.3593 -5.5191
RightFoot  -9.21329 0.0166748 -4.26632
RightToes  0.00048216 0.542163 -0.142577
Spine  19.9125 3.20385 5.81096
Spine1  2.8882 5.72243 -6.64895
HEad  -9.2442 -27.859 11.2454
LeftShoulder1  9.13552 -15.4473 -41.8355
LeftArm  -17.5603 19.9913 -13.2243
LeftForeArm  -7.11619 -58.2589 -19.1773
LeftHand  -0.25398 0.0180481 5.50724
RightShoulder  5.46675 12.749 27.6019
RightArm  47.2347 33.1152 73.0353
RightForeArm  -46.6996 29.0591 8.22783
RightHand  0.00348523 -5.6422 -14.1415
LeftUpLeg  -0.675141 17.228 14.5859
LeftLeg  10.6747 47.6547 1.03881
LeftFoot  0.718805 0.417034 -3.8127
LeftToes  1.06248e-005 4.65856e-005 -8.18499e-006
327
root  57.3035 39.4491 -16.5889 -0.712265 -40.1999 4.35588
RightUpLeg  -17.1074 -34.5402 0.89334
RightLeg  24.4862 -12.0813 -6.16436
RightFoot  -11.264 -0.0722803 -5.00158
RightToes  0.00048216 0.542163 -0.142577
Spine  19.342 2.82586 6.85724
Spine1  2.88407 5.48157 -6.67976
HEad  -8.41578 -27.6252 11.6325
LeftShoulder1  8.99995 -15.1215 -41.9448
LeftArm  -16.7435 22.7803 -12.8665
LeftForeArm  -5.97708 -60.4048 -20.9273
LeftHand  -0.25398 0.0180481 5.50724
RightShoulder  5.44148 12.5778 27.8107
RightArm  49.4994 33.0866 73.8253
RightForeArm  -47.1565 28.6432 8.13077
RightHand  0.085227 -6.41105 -13.3349
LeftUpLeg  -2.26059 21.5188 13.0786
LeftLeg  14.9638 29.3365 5.29937
LeftFoot  -4.57507 0.0211257 0.0162807
LeftToes  1.06248e-005 4.65856e-005 -8.18499e-006
328
root  56.3274 39.3773 -16.512 -1.84019 -41.3091 4.02
RightUpLeg  -14.1544 -34.0478 0.70952
RightLeg  24.8707 -11.4324 -5.97182
RightFoot  -13.0581 -0.165529 -5.20424
RightToes  0.00048216 0.542163 -0.142577
Spine  18.7853 2.59328 9.26971
Spine1  3.16392 5.81066 -7.30776
HEad  -8.17317 -28.1957 12.2123
LeftShoulder1  8.98738 -14.9093 -42.4001
LeftArm  -16.3466 23.8794 -13.2393
LeftForeArm  -5.01581 -61.3673 -21.7754
LeftHand  -0.25398 0.0180481 5.50724
RightShoulder  5.41099 12.2979 28.2303
RightArm  49.0759 32.7328 73.2549
RightForeArm  -45.5828 28.6774 8.10142
RightHand  0.139814 -7.06928 -12.1554
LeftUpLeg  -4.77106 19.4328 11.1366
LeftLeg  19.4795 14.069 6.11476
LeftFoot  -7.85203 0.00579975 1.11445
LeftToes  1.06248e-005 4.65856e-005 -8.18499e-006
329
root  55.3572 39.3548 -16.3668 -2.72078 -43.4959 3.7981
RightUpLeg  -11.0627 -32.854 0.415609
RightLeg  24.3286 -10.4457 -5.09304
RightFoot  -14.4343 -0.228487 -4.85747
RightToes  0.00048216 0.542163 -0.142577
Spine  17.927 2.93085 11.8194
Spine1  3.70369 6.85613 -8.45584
HEad  -7.37059 -28.9196 12.0931
LeftShoulder1  9.07408 -14.7846 -43.1474
LeftArm  -16.285 24.2782 -14.0682
LeftForeArm  -4.32494 -61.7332 -22.0845
LeftHand  -0.25398 0.0180481 5.50724
RightShoulder  5.4117 12.1202 28.6357
RightArm  47.9412 32.153 72.0489
RightForeArm  -44.0165 28.5553 8.03002
RightHand  0.137145 -7.22494 -11.0746
LeftUpLeg  -7.06889 13.6431 9.65717
LeftLeg  24.4513 6.51576 3.58508
LeftFoot  -8.311 0.0878057 -1.26914
LeftToes  1.06248e-005 4.65856e-005 -8.18499e-006
330
root  54.3266 39.415 -16.2027 -4.00026 -46.5425 4.5199
RightUpLeg  -7.64099 -29.1672 -0.745799
RightLeg  23.0208 -11.4161 -3.757
RightFoot  -15.3674 -0.256382 -4.33459
RightToes  0.00048216 0.542163 -0.142577
Spine  17.0704 3.68922 13.2545
Spine1  4.02919 8.13892 -9.79131
HEad  -5.50639 -29.2777 11.1774
LeftShoulder1  9.12981 -14.6561 -43.7539
LeftArm  -16.7156 25.2248 -15.0353
LeftForeArm  -3.18551 -62.4499 -22.7342
LeftHand  -0.25398 0.0180481 5.50724
RightShoulder  5.43388 12.0465 28.9507
RightArm  47.8347 31.5448 71.1915
RightForeArm  -43.8036 28.0785 7.90193
RightHand  0.112406 -7.06565 -10.4455
LeftUpLeg  -9.1458 11.4757 7.04864
LeftLeg  27.836 3.64078 2.45648
LeftFoot  -7.60259 0.171201 -3.89097
LeftToes  1.06248e-005 4.65856e-005 -8.18499e-006
331
root  53.2461 39.5178 -16.0287 -5.58047 -49.8737 5.99309
RightUpLeg  -4.39888 -23.7916 -2.05811
RightLeg  21.1596 -13.699 -2.16437
RightFoot  -15.967 -0.270419 -4.01876
RightToes  0.00048216 0.542163 -0.142577
Spine  16.246 4.48933 13.8813
Spine1  4.08908 9.28331 -11.2565
HEad  -3.23963 -29.2182 9.78525
LeftShoulder1  9.08376 -14.462 -44.0171
LeftArm  -17.871 26.9045 -16.0338
LeftForeArm  -1.31752 -63.7169 -23.9908
LeftHand  -0.25398 0.0180481 5.50724
RightShoulder  5.44839 11.987 29.1841
RightArm  48.2976 30.9675 70.9835
RightForeArm  -43.9504 27.694 7.80794
RightHand  0.111818 -7.13837 -10.039
LeftUpLeg  -11.2413 9.52943 3.57092
LeftLeg  29.5545 6.33755 4.20809
LeftFoot  -7.59975 0.168748 -3.74999
LeftToes  1.06248e-005 4.65856e-005 -8.18499e-006
332
root  52.1577 39.5933 -15.8301 -6.97882 -53.2237 7.50676
RightUpLeg  -1.67757 -18.6526 -2.77623
RightLeg  19.1092 -15.4929 -0.596525
RightFoot  -16.3961 -0.286943 -3.98737
RightToes  0.00048216 0.542163 -0.142577
Spine  15.3914 5.15434 14.6101
Spine1  4.10533 10.2605 -12.8665
HEad  -1.39914 -28.7633 8.15876
LeftShoulder1  8.97939 -14.2236 -44.101
LeftArm  -19.4601 28.7932 -17.0093
LeftForeArm  0.866578 -65.1848 -25.63
LeftHand  -0.25398 0.0180481 5.50724
RightShoulder  5.45015 11.9325 29.3228
RightArm  48.2438 30.3914 71.1132
RightForeArm  -43.1968 27.8595 7.82995
RightHand  0.134823 -7.49096 -9.73942
LeftUpLeg  -13.6184 7.49289 0.0970573
LeftLeg  29.6239 9.8776 6.3443
LeftFoot  -7.50244 0.1072 -1.89836
LeftToes  1.06248e-005 4.65856e-005 -8.18499e-006
333
root  51.0869 39.6064 -15.6321 -8.26015 -56.3543 8.72411
RightUpLeg  0.946027 -14.8665 -3.0041
RightLeg  17.1482 -16.2329 0.700722
RightFoot  -16.8857 -0.308336 -4.01041
RightToes  0.00048216 0.542163 -0.142577
Spine  14.9572 5.57341 15.5683
Spine1  3.99548 10.9841 -14.3456
HEad  -0.266057 -27.8421 6.5203
LeftShoulder1  8.8804 -14.0102 -44.1487
LeftArm  -20.8546 30.5746 -17.8616
LeftForeArm  3.03724 -66.6531 -27.5245
LeftHand  -0.25398 0.0180481 5.50724
RightShoulder  5.4411 11.8783 29.3902
RightArm  48.0142 29.9589 71.2924
RightForeArm  -42.03 28.4892 7.95896
RightHand  0.154694 -7.74041 -9.75331
LeftUpLeg  -15.8916 6.06476 -2.80256
LeftLeg  27.7821 10.4308 6.24609
LeftFoot  -6.38013 0.104934 -1.48725
LeftToes  1.06248e-005 4.65856e-005 -8.18499e-006
334
root  50.0132 39.5445 -15.4628 -9.64027 -58.974 9.5703
RightUpLeg  3.94461 -12.4485 -2.97785
RightLeg  15.3929 -16.2415 1.677
RightFoot  -17.6241 -0.332665 -3.89173
RightToes  0.00048216 0.542163 -0.142577
Spine  15.2027 5.68853 16.3837
Spine1  3.7813 11.3231 -15.2649
HEad  0.09989 -26.5453 5.1323
LeftShoulder1  8.81944 -13.8819 -44.1701
LeftArm  -21.8283 32.1464 -18.576
LeftForeArm  5.19248 -68.0387 -29.5872
LeftHand  -0.25398 0.0180481 5.50724
RightShoulder  5.39754 11.7384 29.4307
RightArm  48.4563 29.9119 71.4719
RightForeArm  -41.4393 29.2288 8.13413
RightHand  0.165957 -7.81235 -10.0025
LeftUpLeg  -17.5412 5.52233 -5.17377
LeftLeg  24.1996 7.81658 4.16653
LeftFoot  -4.8347 0.194227 -2.89535
LeftToes  1.06248e-005 4.65856e-005 -8.18499e-006
335
root  48.8739 39.4176 -15.3089 -11.1239 -61.2507 10.3046
RightUpLeg  7.21397 -10.9572 -2.82399
RightLeg  13.8025 -15.5422 2.37589
RightFoot  -18.4739 -0.363342 -3.82182
RightToes  0.00048216 0.542163 -0.142577
Spine  15.5439 5.75486 16.7799
Spine1  4.02194 11.5193 -15.5013
HEad  -0.35548 -25.0839 4.12323
LeftShoulder1  8.79929 -13.8294 -44.2043
LeftArm  -22.6252 33.359 -19.2234
LeftForeArm  7.1969 -69.1641 -31.4885
LeftHand  -0.25398 0.0180481 5.50724
RightShoulder  5.3297 11.5186 29.4998
RightArm  49.3962 30.2717 71.597
RightForeArm  -41.3081 29.8919 8.30531
RightHand  0.181695 -7.98205 -10.0879
LeftUpLeg  -18.5385 6.39296 -7.51212
LeftLeg  19.3381 3.68398 1.87212
LeftFoot  -3.28683 0.299808 -3.99248
LeftToes  1.06248e-005 4.65856e-005 -8.18499e-006
336
root  47.6303 39.2643 -15.1469 -12.9554 -63.618 11.6767
RightUpLeg  10.4409 -10.1835 -2.90006
RightLeg  12.1765 -13.8696 2.8719
RightFoot  -19.1681 -0.405932 -4.03523
RightToes  0.00048216 0.542163 -0.142577
Spine  15.3726 6.07556 16.5804
Spine1  4.99698 11.9235 -15.3538
HEad  -1.33373 -23.483 3.50996
LeftShoulder1  8.78459 -13.767 -44.2944
LeftArm  -23.3807 34.3081 -19.7621
LeftForeArm  8.98051 -70.0348 -33.1267
LeftHand  -0.25398 0.0180481 5.50724
RightShoulder  5.33058 11.4121 29.7641
RightArm  50.3272 30.7903 71.5619
RightForeArm  -41.0616 30.3169 8.41172
RightHand  0.193524 -8.20033 -9.85323
LeftUpLeg  -19.1639 7.68728 -9.63417
LeftLeg  13.541 1.65061 0.0754824
LeftFoot  -1.35124 0.353635 -3.96465
LeftToes  1.06248e-005 4.65856e-005 -8.18499e-006
337
root  46.302 39.0766 -14.9697 -15.126 -66.0117 13.7271
RightUpLeg  13.4321 -9.97166 -3.37952
RightLeg  10.824 -11.5692 3.21498
RightFoot  -19.8931 -0.440259 -4.09222
RightToes  0.00048216 0.542163 -0.142577
Spine  14.8674 6.51078 16.0145
Spine1  6.05048 12.4232 -15.2497
HEad  -2.18138 -21.7569 3.30225
LeftShoulder1  8.73185 -13.6325 -44.3776
LeftArm  -24.0316 35.4119 -20.0914
LeftForeArm  11.0408 -70.9574 -35.067
LeftHand  -0.25398 0.0180481 5.50724
RightShoulder  5.46623 11.5311 30.3922
RightArm  51.3341 31.1789 71.4027
RightForeArm  -40.5975 30.2806 8.38855
RightHand  0.174092 -8.09399 -9.40266
LeftUpLeg  -19.5863 3.99939 -9.29212
LeftLeg  7.90686 8.04447 -2.42586
LeftFoot  0.303226 0.384307 -3.78192
LeftToes  1.06248e-005 4.65856e-005 -8.18499e-006
